<svg xmlns="http://www.w3.org/2000/svg" viewBox="0 0 426.89 488.81"><path class="cls-1" d="M226.16,83.34l0,58.4,56.4,38.48,45.37-30.9C304.47,112.5,267.91,87.46,226.16,83.34Z"/><path class="cls-1" d="M144.49,181l56.19-38.26,0-59.24c-41.65,4.46-78,29.75-101.27,66.74Z"/><polygon class="cls-1" points="270.04 283.44 270.07 206.63 214.19 168.49 157.84 206.85 157.81 283.2 214.04 321.57 270.04 283.44"/><path class="cls-1" d="M355.21,245.51a183,183,0,0,0-13.8-70.26l-45.65,31.08,0,77,46.07,31.43A183,183,0,0,0,355.21,245.51Z"/><path class="cls-1" d="M200.68,407.58l0-59.85-55.44-37.82L99.56,341C122.79,377.92,159.12,403.12,200.68,407.58Z"/><path class="cls-1" d="M328.19,341.26,282.43,310l-56.26,38.32,0,59.33C268.06,403.55,304.75,378.33,328.19,341.26Z"/><path class="cls-1" d="M86.09,176.21A185.78,185.78,0,0,0,86,314.54L132.35,283l0-75.16Z"/><path class="cls-1" d="M276.61,83.34C274,36.68,246.92,0,213.94,0s-60,36.68-62.66,83.34a125.34,125.34,0,0,1,125.33,0Z"/><path class="cls-1" d="M102,122.07a57.45,57.45,0,0,0-28.9-8C32.71,114.11,0,157.9,0,211.92V212a2.88,2.88,0,0,0,5,2c12.19-12.42,33.54-21.2,58.46-23C71,164.28,84.41,140.66,102,122.07Z"/><path class="cls-1" d="M353.82,114.11A57.22,57.22,0,0,0,326,121.47c17.86,18.71,31.51,42.61,39.15,69.61,24.22,2.09,44.89,10.76,56.81,22.9a2.88,2.88,0,0,0,4.95-2v-.08C426.89,157.9,394.18,114.11,353.82,114.11Z"/><path class="cls-1" d="M81.59,343.67a105.93,105.93,0,0,0-20,25.06c-19.73,34.17-18.1,73.06,2.2,93.11,27.51,7.56,62-10.48,81.74-44.65q1.78-3.09,3.33-6.23C120.63,397.41,97,373.64,81.59,343.67Z"/><path class="cls-1" d="M345.41,342.87c-15.24,30-38.62,53.83-66.66,67.58q1.65,3.39,3.58,6.74c19.73,34.17,54.22,52.21,81.74,44.65,20.3-20,21.93-58.94,2.2-93.11A105.54,105.54,0,0,0,345.41,342.87Z"/><path class="cls-1" d="M179.45,417.72l33.84,71.09,33.85-71.09a124.21,124.21,0,0,1-67.69,0Z"/></svg>