<svg xmlns="http://www.w3.org/2000/svg" viewBox="0 0 494.8 554.9"><path class="cls-1" d="M494.8,255.42c-.13-72.22-31-137.81-80-184.45a269.68,269.68,0,0,1,70.37-32.75c-.17-.21-.33-.43-.51-.64C448.46-4.88,385.23-11.4,333,18.24A252.28,252.28,0,0,0,235.38,0,255.08,255.08,0,0,0,55.24,77.79L1.89,106.25a3.64,3.64,0,0,0-1.47,1.44,3.55,3.55,0,0,0,2.37,5.08L11,114.34A44.08,44.08,0,0,0,19.65,113L42,106.63A315.34,315.34,0,0,1,229.7,124.74a76.5,76.5,0,0,0,61.1,97.6l.53.07a143,143,0,0,1-5.64-66.77c77.88,54,130.17,142.25,135,243-20.64-3.86-40.93-2.88-65.26,14.69-24.92,18-26.23,33.28-52.2,66.08,31.16,4.61,48.07,5.67,81.88-13.36,1.72-1,3.39-1.95,5-2.93-.58,2.67-1.08,5.48-1.48,8.44-4.19,30.44,6,42,11.77,83.37,24.84-19.35,37.29-30.85,46.86-68.45,8.52-33.46,6.07-58.54-4.25-76.28A254.7,254.7,0,0,0,494.8,255.42ZM116.14,87.64A320.65,320.65,0,0,0,79.4,89.76a.2.2,0,0,1-.12-.38,249.84,249.84,0,0,1,99-28.78C331.24,49,459.77,177.49,448.2,330.47a249.82,249.82,0,0,1-14.14,66.15.21.21,0,0,1-.4-.07C429,225.16,288.65,87.64,116.14,87.64Z"/></svg>