<svg xmlns="http://www.w3.org/2000/svg" viewBox="0 0 566.93 469.69"><path class="cls-1" d="M566.93,300.84c-4-.26-8.22-.41-12.84-.41C495,300.43,495,324,435.86,324s-59.11-23.6-118.22-23.6S258.52,324,199.41,324s-59.12-23.6-118.24-23.6c-40.73,0-56.78,18.88-81.17,25.14V469.69H566.93Z"/><path class="cls-1" d="M148.89,360.55a11.92,11.92,0,0,0,2.76-19q-1.69-1.72-3.33-3.57c-81.08-93.3,45.73-196.79,15.36-308.63-12.65-46.57-38.15-33-22.53,7.48,38.54,100-102.2,206.67-39.07,299.39"/><path class="cls-1" d="M542,116.15,509.91,67.92,522.19,8.49,465.05,69C439.29,31.25,383.34.31,323.63,10.44c-63,10.68-112.75,49.07-125.9,92.65l27.81,10.39L201.4,132.67c23.18,37.42,81.31,46.51,144.33,35.83,69.83-11.84,124.49-28.57,130-77.31l66.29,25Z"/></svg>
