<svg fill="#000000" xmlns="http://www.w3.org/2000/svg" viewBox="0 0 566.9 514.78"><path d="M323.9,409.79c-69.71,0-69.71-27.32-139.42-27.32s-69.7,27.32-139.4,27.32a204.27,204.27,0,0,1-27.27-1.67A15.74,15.74,0,0,0,0,423.75V499a15.77,15.77,0,0,0,15.77,15.77H551.13A15.77,15.77,0,0,0,566.9,499V426.55a15.81,15.81,0,0,0-11.22-15.09c-26.66-8.18-46.8-29-92.38-29C393.6,382.47,393.6,409.79,323.9,409.79Z"/><path d="M319.83,387.93c69.71,0,69.71-27.32,139.41-27.32,4.44,0,8.63.21,12.62.57a65.43,65.43,0,0,0,8.05-31.54h0a12,12,0,0,0-12-11.95H90.81a12,12,0,0,0-12,11.95h0a65.58,65.58,0,0,0,21.47,48.6c21.64-7.86,38.4-17.63,80.09-17.63C250.13,360.61,250.13,387.93,319.83,387.93Z"/><path d="M291.36,296.83l158,.29c5.36,0,8.78-4.93,6.25-9L367.16,145.52,297.61,33.38c-3.48-5.61-13.32-3.47-13.32,2.89V290.72C284.29,294.09,287.45,296.83,291.36,296.83Z"/><path d="M119.48,296l133.27.24c3.77,0,6.83-2.63,6.83-5.88V77.18c0-6.11-9.44-8.18-12.81-2.8l-57.62,92.08L113.5,287.35C111.05,291.27,114.33,296,119.48,296Z"/></svg>
