<svg fill="#000000" xmlns="http://www.w3.org/2000/svg" viewBox="0 0 566.9 530.01"><path d="M397.06,386.7c-85.45,0-85.45-42.63-170.9-42.63S140.71,386.7,55.26,386.7a212,212,0,0,1-24-1.28A28.18,28.18,0,0,0,0,413.48v88.3A28.23,28.23,0,0,0,28.23,530H538.67a28.23,28.23,0,0,0,28.23-28.23V374.63a28.27,28.27,0,0,0-33.32-27.77C480.44,356.33,469.18,386.7,397.06,386.7Z"/><path d="M397.06,366.41c31,0,50.71-5.61,67.37-12.75a65.79,65.79,0,0,0,5.19-12.93h0A12,12,0,0,0,461.37,326l-363-102.49a12,12,0,0,0-14.75,8.25h0a65.75,65.75,0,0,0,45.41,81.14l54.49,15.38c11.67-2.75,25.4-4.48,42.6-4.48C311.61,323.78,311.61,366.41,397.06,366.41Z"/><path d="M297.35,257l152,43.2c5.15,1.47,9.79-2.35,8.47-7L411.42,131.93,375,5.11c-1.83-6.34-11.88-7-13.61-.84L292.21,249.14C291.29,252.39,293.59,255.88,297.35,257Z"/><path d="M132.16,209.47l128.19,36.45c3.63,1,7.29-.68,8.18-3.81L326.47,36.92c1.66-5.88-6.87-10.43-11.57-6.17l-80.48,73L128.77,199.48C125.34,202.59,127.2,208.06,132.16,209.47Z"/></svg>