<svg xmlns="http://www.w3.org/2000/svg" viewBox="0 0 566.9 587.92"><path d="M226.16,399.59c-85.45,0-85.45,65.16-170.9,65.16A142.17,142.17,0,0,1,33,463.08,28.37,28.37,0,0,0,0,491v68.56a28.33,28.33,0,0,0,28.33,28.33H538.57a28.33,28.33,0,0,0,28.33-28.33V431.91a28.33,28.33,0,0,0-36.58-27.11c-50.38,15.44-62.64,59.95-133.26,59.95C311.61,464.75,311.61,399.59,226.16,399.59Z"/><path d="M70.07,294.26H447.22a11.95,11.95,0,0,1,11.95,11.95v0A65.75,65.75,0,0,1,393.42,372H123.86a65.75,65.75,0,0,1-65.75-65.75v0a11.95,11.95,0,0,1,11.95-11.95Z" transform="translate(226.05 -87.36) rotate(33.4)"/><path d="M433.79,376.2c4.47,3,10,.73,10.18-4.07l4.66-167.73,3.66-131.9c.18-6.6-9.22-10.23-12.72-4.92L299.52,280c-1.86,2.82-.73,6.84,2.53,9Z"/><path d="M288.49,123.9l-129.7,59.29c-4.21,1.92-4.09,7.7.21,10.55l111.13,73.55c3.15,2.08,7.15,1.57,8.94-1.15l117.36-178c3.36-5.1-3.39-12-9.15-9.39Z"/></svg>